<?xml version="1.0" standalone="no"?>
<!DOCTYPE svg PUBLIC "-//W3C//DTD SVG 20010904//EN"
 "http://www.w3.org/TR/2001/REC-SVG-20010904/DTD/svg10.dtd">
<svg version="1.0" xmlns="http://www.w3.org/2000/svg"
 width="260.000000pt" height="260.000000pt" viewBox="0 0 260.000000 260.000000"
 preserveAspectRatio="xMidYMid meet">
<metadata>
Created by potrace 1.14, written by Peter Selinger 2001-2017
</metadata>
<g transform="translate(0.000000,260.000000) scale(0.100000,-0.100000)"
fill="#000000" stroke="none">
<path d="M2025 2376 c-74 -23 -175 -84 -275 -164 -114 -92 -421 -416 -514
-543 -11 -14 -20 -19 -23 -12 -2 6 -31 52 -64 102 -158 241 -379 378 -476 297
-101 -85 -141 -344 -92 -596 47 -242 139 -539 206 -667 70 -134 117 -198 236
-320 109 -112 110 -113 97 -143 -10 -25 -10 -34 4 -55 25 -39 79 -61 111 -47
14 6 25 19 25 27 0 12 9 15 40 13 50 -2 78 22 87 75 5 34 3 38 -31 58 -20 11
-36 23 -36 26 0 29 172 414 335 748 227 468 244 499 477 880 68 113 90 167 91
229 0 43 -4 53 -31 78 -26 23 -41 28 -80 27 -26 0 -65 -6 -87 -13z m106 -78
c4 -43 -26 -104 -173 -350 -208 -350 -433 -783 -598 -1148 -59 -133 -110 -239
-133 -277 -22 -39 -25 -37 -116 49 -75 72 -116 125 -175 222 -128 211 -217
454 -252 686 -2 19 -7 46 -9 60 -34 195 -17 375 39 412 37 25 114 -19 216
-122 119 -120 159 -194 214 -390 26 -95 82 -128 124 -75 28 36 34 84 18 140
-8 27 -12 53 -9 59 13 22 157 212 202 266 81 98 275 284 351 336 84 58 184
111 244 130 53 16 56 16 57 2z"/>
</g>
</svg>
