<svg width="89" height="100" viewBox="0 0 89 100" fill="none" xmlns="http://www.w3.org/2000/svg">
<path d="M37.4225 9.07848C37.5835 9.07848 37.7476 9.04675 37.905 8.98147C38.5443 8.71547 38.8462 7.98336 38.5792 7.34703L35.8205 0.76779C35.5529 0.130853 34.8169 -0.168093 34.18 0.0960773C33.5408 0.362078 33.2389 1.09419 33.5058 1.73052L36.2645 8.30976C36.466 8.78929 36.9314 9.07848 37.4225 9.07848Z" fill="white"/>
<path d="M25.645 8.987C25.3456 9.60929 25.6095 10.3554 26.2341 10.6538L32.6877 13.7341C32.8628 13.8177 33.0471 13.8568 33.229 13.8568C33.6962 13.8568 34.1451 13.595 34.3606 13.1472C34.6601 12.5249 34.3962 11.7788 33.7716 11.4804L27.3179 8.40009C26.6933 8.10236 25.9444 8.36531 25.645 8.987Z" fill="white"/>
<path d="M1.55248 93.0291C0.883793 92.8656 0.201018 93.2743 0.0362942 93.9454C-0.128429 94.6153 0.283073 95.2919 0.956051 95.456L19.4198 99.964C19.5196 99.9884 19.62 100 19.7192 100C20.2832 100 20.7957 99.6181 20.936 99.0476C21.1007 98.3778 20.6892 97.7012 20.0162 97.5371L12.0026 95.5805L17.7066 72.2855C17.8707 72.2964 18.0342 72.3146 18.1993 72.3146C25.8005 72.3146 34.3441 60.8448 38.2803 44.8397C39.4983 39.89 41.9538 27.4965 42.1106 22.4377C42.1289 21.8483 41.7309 21.3261 41.1553 21.1857L18.1883 15.5784C17.617 15.4405 17.0187 15.7175 16.7609 16.2489C14.5528 20.8063 10.9791 32.9264 9.76171 37.8767C5.73854 54.2317 8.18245 68.5938 15.2693 71.6943L9.56622 94.9856L1.55248 93.0291ZM18.6011 18.2518L39.5491 23.3662C39.2918 26.8657 38.2769 32.709 37.2901 37.6257C34.3405 36.1683 32.3434 34.5457 30.2517 32.8355C26.9122 30.1058 23.4527 27.289 16.0504 25.252C16.9357 22.5461 17.832 20.0275 18.6011 18.2518ZM12.1977 38.4709C12.8003 36.0203 13.9873 31.7912 15.2884 27.6343C22.2394 29.5298 25.3679 32.076 28.6608 34.7676C30.902 36.6003 33.2307 38.4898 36.7697 40.1479C36.4276 41.7577 36.1064 43.1798 35.8443 44.2448C32.068 59.596 23.4607 71.2408 17.0555 69.679C17.0549 69.6788 17.0544 69.6786 17.0539 69.6785C10.6466 68.111 8.42226 53.8211 12.1977 38.4709Z" fill="white"/>
<path d="M17.2557 60.1384C17.8969 59.8766 18.2037 59.147 17.941 58.5088C17.1547 56.5956 16.8589 50.236 18.7217 42.6617C18.8864 41.9918 18.4749 41.3152 17.802 41.1511C17.132 40.9857 16.4505 41.3963 16.2858 42.0674C14.3856 49.7918 14.5246 56.7914 15.6201 59.4557C15.8185 59.9395 16.287 60.2323 16.7812 60.2323C16.9392 60.2323 17.1002 60.2018 17.2557 60.1384Z" fill="white"/>
<path d="M80.5714 45.3937C81.692 39.0463 81.2186 31.1163 79.2383 23.0655C78.0209 18.1152 74.4472 5.99513 72.2391 1.43773C71.9819 0.907563 71.3891 0.625701 70.8117 0.767242L47.8447 6.37461C47.2691 6.51493 46.8711 7.03717 46.8894 7.62652C47.0462 12.6854 49.5017 25.0788 50.7197 30.0279C52.6994 38.0787 55.9596 45.3284 59.8995 50.441C63.4567 55.057 67.257 57.5047 70.7823 57.5047C70.9539 57.5047 71.1234 57.4861 71.2936 57.4745L76.9975 80.7693L68.9838 82.7259C68.3108 82.89 67.8993 83.5666 68.064 84.2365C68.2043 84.8069 68.7168 85.1889 69.2808 85.1889C69.38 85.1889 69.4804 85.1773 69.5802 85.1529L88.044 80.6449C88.7169 80.4808 89.1284 79.8042 88.9637 79.1343C88.799 78.4632 88.1138 78.0532 87.4475 78.2179L79.4339 80.1745L73.7311 56.8839C77.1012 55.4178 79.5096 51.4055 80.5714 45.3937ZM70.3989 3.44067C70.9209 4.64568 71.5019 6.19463 72.0978 7.90922C64.7974 9.97492 61.3837 12.7947 58.0888 15.5272C56.0412 17.2251 54.0883 18.8379 51.2178 20.293C50.4061 16.0141 49.6652 11.4703 49.4509 8.55508L70.3989 3.44067ZM71.9445 54.8672C69.0205 55.5823 65.3531 53.414 61.8891 48.9188C58.1561 44.0753 55.0546 37.155 53.1557 29.4331C52.7644 27.8428 52.2429 25.4688 51.7133 22.8313C55.1923 21.1658 57.4858 19.2788 59.6932 17.4478C62.9439 14.7525 66.0324 12.2021 72.897 10.281C74.4999 15.1641 76.0754 20.7039 76.8023 23.6598C78.7019 31.3823 79.163 38.9469 78.1011 44.9612C77.1159 50.5423 74.8716 54.1528 71.9445 54.8672Z" fill="white"/>
<path d="M70.56 22.9587C69.8876 23.1228 69.4761 23.7994 69.6408 24.4699C71.9243 33.7537 71.5508 41.5763 70.5796 43.9398C70.3169 44.5786 70.6236 45.3082 71.2648 45.5694C71.4203 45.6328 71.5814 45.6633 71.7394 45.6633C72.2335 45.6633 72.702 45.3705 72.9004 44.8867C74.2182 41.6806 74.3774 33.2272 72.0768 23.8744C71.912 23.2046 71.2311 22.7964 70.56 22.9587Z" fill="white"/>
</svg>
