<svg width="100" height="100" viewBox="0 0 100 100" fill="none" xmlns="http://www.w3.org/2000/svg">
<path d="M90.8594 29.9911H51.3208V26.4918C54.0321 24.8999 63.0829 19.0856 64.9634 11.3828C66.2537 6.09773 63.3411 2.22029 59.8828 0.721074C56.908 -0.569373 52.8772 -0.293459 49.967 2.91373C47.0544 -0.293459 43.0261 -0.569373 40.05 0.721074C36.593 2.22029 33.6804 6.09773 34.9707 11.3828C36.9039 19.306 46.417 25.2264 48.8208 26.6128V29.9911H9.14062C4.10034 29.9911 0 34.092 0 39.1329V50.8007C0 53.6682 1.31561 56.2336 3.37402 57.9265V76.8623H1.25C0.559082 76.8623 0 77.4215 0 78.1125V79.9047C0 85.4213 3.03162 89.4437 7.55127 90.2493V98.7498C7.55127 99.4408 8.11035 100 8.80127 100H91.1975C91.8884 100 92.4475 99.4408 92.4475 98.7498V90.2494C96.9682 89.4438 100 85.4214 100 79.9047V78.1125C100 77.4215 99.4409 76.8623 98.75 76.8623H97.4219V55.9018C99.0146 54.2436 100 51.9976 100 49.5224V39.1329C100 34.092 95.8997 29.9911 90.8594 29.9911ZM37.3999 10.7895C36.4551 6.92059 38.5498 4.09675 41.0449 3.01507C41.7773 2.69642 42.6392 2.4962 43.5461 2.4962C45.3809 2.4962 47.4011 3.31662 48.9209 5.64113C49.3823 6.34923 50.5518 6.34679 51.0132 5.64113C53.2825 2.16535 56.6736 2.05059 58.8892 3.01507C61.3843 4.09675 63.479 6.92059 62.5342 10.7895C60.885 17.5469 52.3083 23.0042 49.9658 24.385C47.6233 23.0066 39.0515 17.5591 37.3999 10.7895ZM10.0513 97.4997V90.4065H89.9475V97.4997H10.0513ZM97.5 79.9047C97.5 83.8871 95.4126 87.9062 90.7495 87.9062H9.24927C4.5874 87.9062 2.5 83.8871 2.5 79.9047V79.3626H97.5V79.9047ZM5.87402 76.8623V59.3858C6.91322 59.7927 8.03963 60.0242 9.22119 60.0242C14.3066 60.0242 18.4436 55.8868 18.4436 50.8007V47.4897C18.4436 45.0785 20.4041 43.1178 22.8137 43.1178C25.2246 43.1178 27.1851 45.0785 27.1851 47.4897V57.2175C27.1851 62.3024 31.322 66.4398 36.4075 66.4398C41.4917 66.4398 45.6287 62.3024 45.6287 57.2175V54.9906C45.6287 52.5794 47.5891 50.6188 50 50.6188C52.4097 50.6188 54.3701 52.5794 54.3701 54.9906V55.8013C54.3701 60.8874 58.5071 65.0249 63.5925 65.0249C68.6768 65.0249 72.8137 60.8874 72.8137 55.8013V48.1148C72.8137 45.7036 74.7742 43.7429 77.1851 43.7429C79.5959 43.7429 81.5564 45.7036 81.5564 48.1148V49.5224C81.5564 54.6073 85.6934 58.7448 90.7776 58.7448C92.269 58.7448 93.6741 58.3809 94.9219 57.7497V76.8623H5.87402ZM97.5 49.5224C97.5 53.2289 94.4849 56.2445 90.7776 56.2445C87.0715 56.2445 84.0564 53.2289 84.0564 49.5224V48.1148C84.0564 44.3252 80.9741 41.2426 77.1851 41.2426C73.396 41.2426 70.3137 44.3252 70.3137 48.1148V55.8013C70.3137 59.509 67.2986 62.5246 63.5925 62.5246C59.8853 62.5246 56.8701 59.509 56.8701 55.8013V54.9906C56.8701 51.2011 53.7878 48.1184 50 48.1184C46.2109 48.1184 43.1287 51.2011 43.1287 54.9906V57.2175C43.1287 60.924 40.1135 63.9395 36.4075 63.9395C32.7002 63.9395 29.6851 60.924 29.6851 57.2175V47.4897C29.6851 43.7001 26.6028 40.6175 22.8137 40.6175C19.0259 40.6175 15.9436 43.7001 15.9436 47.4897V50.8007C15.9436 54.5084 12.9285 57.5239 9.22119 57.5239C5.51514 57.5239 2.5 54.5084 2.5 50.8007V39.1329C2.5 35.4703 5.47852 32.4915 9.14062 32.4915H90.8594C94.5215 32.4915 97.5 35.4703 97.5 39.1329V49.5224Z" fill="white"/>
<path d="M16.7871 70.4651H12.9358C12.2449 70.4651 11.6858 71.0242 11.6858 71.7152C11.6858 72.4062 12.2449 72.9654 12.9358 72.9654H16.7871C17.478 72.9654 18.0371 72.4062 18.0371 71.7152C18.0371 71.0242 17.478 70.4651 16.7871 70.4651Z" fill="white"/>
<path d="M28.4888 70.4651H24.6375C23.9465 70.4651 23.3875 71.0242 23.3875 71.7152C23.3875 72.4062 23.9465 72.9654 24.6375 72.9654H28.4888C29.1797 72.9654 29.7388 72.4062 29.7388 71.7152C29.7388 71.0242 29.1797 70.4651 28.4888 70.4651Z" fill="white"/>
<path d="M40.1904 70.4651H36.3391C35.6482 70.4651 35.0891 71.0242 35.0891 71.7152C35.0891 72.4062 35.6482 72.9654 36.3391 72.9654H40.1904C40.8813 72.9654 41.4404 72.4062 41.4404 71.7152C41.4404 71.0242 40.8813 70.4651 40.1904 70.4651Z" fill="white"/>
<path d="M51.8921 70.4651H48.042C47.3511 70.4651 46.792 71.0242 46.792 71.7152C46.792 72.4062 47.3511 72.9654 48.042 72.9654H51.8921C52.583 72.9654 53.1421 72.4062 53.1421 71.7152C53.1421 71.0242 52.583 70.4651 51.8921 70.4651Z" fill="white"/>
<path d="M63.595 70.4651H59.7437C59.0527 70.4651 58.4937 71.0242 58.4937 71.7152C58.4937 72.4062 59.0527 72.9654 59.7437 72.9654H63.595C64.2859 72.9654 64.845 72.4062 64.845 71.7152C64.845 71.0242 64.2859 70.4651 63.595 70.4651Z" fill="white"/>
<path d="M75.2966 70.4651H71.4453C70.7544 70.4651 70.1953 71.0242 70.1953 71.7152C70.1953 72.4062 70.7544 72.9654 71.4453 72.9654H75.2966C75.9875 72.9654 76.5466 72.4062 76.5466 71.7152C76.5466 71.0242 75.9875 70.4651 75.2966 70.4651Z" fill="white"/>
<path d="M86.9983 70.4651H83.147C82.4561 70.4651 81.897 71.0242 81.897 71.7152C81.897 72.4062 82.4561 72.9654 83.147 72.9654H86.9983C87.6892 72.9654 88.2483 72.4062 88.2483 71.7152C88.2483 71.0242 87.6892 70.4651 86.9983 70.4651Z" fill="white"/>
</svg>
