<svg width="100" height="100" viewBox="0 0 100 100" fill="none" xmlns="http://www.w3.org/2000/svg">
<path d="M94.1077 23.5541C95.2743 23.5541 96.3542 23.1178 97.1917 22.3944C97.235 22.3612 97.2864 22.3448 97.326 22.3051C97.3566 22.2745 97.368 22.2342 97.3947 22.2014C98.0412 21.5727 98.5234 20.7677 98.7276 19.8345L99.8898 14.5202C100.235 12.9421 99.7586 11.32 98.6165 10.1803L89.8047 1.37712C88.64 0.214146 86.9228 -0.262641 85.3295 0.141499L80.2109 1.42534C78.0689 1.96318 76.5641 3.95641 76.6343 6.16452L77.0486 19.1738C63.5635 7.62151 43.1839 8.21803 30.423 20.9797C26.8671 24.5359 24.1954 28.7136 22.4746 33.3944C17.86 35.0893 13.6274 37.7767 10.0476 41.357C-3.34921 54.7547 -3.34921 76.5538 10.0476 89.9514C16.7466 96.6509 25.5438 100 34.3433 100C43.1411 100 51.9412 96.6497 58.639 89.9514C62.2019 86.389 64.8756 82.2027 66.5968 77.5092C71.1298 75.8465 75.3825 73.2075 79.0151 69.5748C91.7149 56.8736 92.3663 36.6262 80.9869 23.1399L93.9563 23.5517C94.007 23.5535 94.0577 23.5541 94.1077 23.5541ZM94.0357 21.0524L83.9053 20.7307L90.8885 17.6414L94.2891 21.0385C94.205 21.0453 94.1216 21.0553 94.0357 21.0524ZM79.1335 6.08516C79.1317 6.02861 79.1543 5.97741 79.1569 5.92155L82.5534 9.31469L79.4587 16.2957L79.1335 6.08516ZM90.4399 13.6592L86.4915 9.71478L91.6006 8.43979L90.4399 13.6592ZM88.9917 15.7465L80.8385 19.3534L84.449 11.2084L88.9917 15.7465ZM97.4469 13.9854L96.2846 19.2997C96.2731 19.3521 96.2522 19.3999 96.2373 19.4507L92.5354 15.7526L94.0121 9.11491L96.8498 11.9501C97.3858 12.4842 97.6092 13.2455 97.4469 13.9854ZM85.9381 2.56634C86.6871 2.38075 87.4917 2.60052 88.0381 3.1463L90.9255 6.03113L84.4273 7.65265L80.6824 3.91146C80.7307 3.89559 80.7696 3.86277 80.8195 3.85018L85.9381 2.56634ZM56.8712 88.1835C44.4486 100.606 24.238 100.606 11.8155 88.1835C-0.606477 75.7608 -0.606477 55.5477 11.8155 43.125C17.8326 37.1068 25.8331 33.7931 34.3433 33.7931C42.8535 33.7931 50.854 37.1068 56.8712 43.125C63.1526 49.4068 66.5314 58.0815 66.1706 66.9577C64.5944 67.7937 62.9118 68.4466 61.1563 68.9252C61.287 67.8414 61.3763 66.7492 61.3763 65.6542C61.3763 50.7475 49.2492 38.6196 34.3433 38.6196C19.4375 38.6196 7.31038 50.7475 7.31038 65.6542C7.31038 80.561 19.4375 92.6889 34.3433 92.6889C43.8397 92.6889 52.6852 87.6421 57.5534 79.4987C59.5594 79.3341 61.5521 78.993 63.5094 78.4783C61.9257 82.0909 59.7038 85.3507 56.8712 88.1835ZM68.6995 65.4103C68.6309 56.4192 65.0241 47.7419 58.639 41.357C52.2014 34.9184 43.6587 31.3547 34.5631 31.2979C39.1219 24.7486 46.6873 20.7435 54.7188 20.7435C68.2462 20.7435 79.2513 31.7492 79.2513 45.2775C79.2513 53.6098 75.0676 60.9741 68.6995 65.4103ZM30.501 41.4518C31.7562 41.253 33.0331 41.1202 34.3433 41.1202C47.8708 41.1202 58.8759 52.1259 58.8759 65.6542C58.8759 66.9371 58.7646 68.2202 58.5678 69.4784C57.3105 69.6778 56.0313 69.811 54.7188 69.811C41.1919 69.811 30.1868 58.8052 30.1868 45.2775C30.1868 43.9925 30.3039 42.7111 30.501 41.4518ZM20.3662 45.5181C20.4337 54.5121 24.0331 63.1845 30.423 69.5748C37.067 76.2191 45.7775 79.5636 54.5043 79.6176C49.9455 86.181 42.403 90.1883 34.3433 90.1883C20.8159 90.1883 9.81077 79.1825 9.81077 65.6542C9.81077 57.32 13.9961 49.9541 20.3662 45.5181ZM77.2472 67.8068C64.8259 80.2289 44.6135 80.2301 32.1909 67.8068C25.9053 61.5202 22.5337 52.8522 22.8939 43.9724C24.4699 43.1367 26.1521 42.484 27.9073 42.0056C27.7766 43.0897 27.6864 44.1816 27.6864 45.2775C27.6864 60.1843 39.8129 72.3115 54.7188 72.3115C69.6246 72.3115 81.7517 60.1843 81.7517 45.2775C81.7517 30.3708 69.6246 18.2429 54.7188 18.2429C45.2531 18.2429 36.3734 23.2888 31.5098 31.4164C29.4861 31.5806 27.4986 31.9181 25.5642 32.4257C27.1468 28.8247 29.3652 25.5741 32.1909 22.7477C44.6135 10.3268 64.8259 10.3256 77.2472 22.7477C89.6686 35.1704 89.6686 55.3841 77.2472 67.8068Z" fill="white"/>
</svg>
